<svg xmlns="http://www.w3.org/2000/svg" width="1200" height="3336">
  <style>text { font-family: monospace; font-size: 12px; }</style>
  <text x="10" y="20" font-weight="bold">Modules (201):</text>
  <text x="20" y="36">forge1</text>
  <text x="20" y="52">forge1.agents</text>
  <text x="20" y="68">forge1.agents.agent_factory_enhanced</text>
  <text x="20" y="84">forge1.agents.agent_orchestrator</text>
  <text x="20" y="100">forge1.agents.communication_manager</text>
  <text x="20" y="116">forge1.agents.compliance_agent</text>
  <text x="20" y="132">forge1.agents.enhanced_base_agent</text>
  <text x="20" y="148">forge1.agents.executor_agent</text>
  <text x="20" y="164">forge1.agents.multi_model_coordinator</text>
  <text x="20" y="180">forge1.agents.performance_optimizer</text>
  <text x="20" y="196">forge1.agents.reporter_agent</text>
  <text x="20" y="212">forge1.agents.superhuman_planner</text>
  <text x="20" y="228">forge1.agents.verifier_agent</text>
  <text x="20" y="244">forge1.api.api_integration_api</text>
  <text x="20" y="260">forge1.api.automation_api</text>
  <text x="20" y="276">forge1.api.azure_monitor_api</text>
  <text x="20" y="292">forge1.api.compliance_api</text>
  <text x="20" y="308">forge1.api.employee_lifecycle_api</text>
  <text x="20" y="324">forge1.api.v1</text>
  <text x="20" y="340">forge1.api.v1.analytics</text>
  <text x="20" y="356">forge1.auth</text>
  <text x="20" y="372">forge1.auth.authentication_manager</text>
  <text x="20" y="388">forge1.billing</text>
  <text x="20" y="404">forge1.billing.payment_processor</text>
  <text x="20" y="420">forge1.billing.pricing_engine</text>
  <text x="20" y="436">forge1.compliance</text>
  <text x="20" y="452">forge1.compliance.gdpr</text>
  <text x="20" y="468">forge1.compliance.hipaa</text>
  <text x="20" y="484">forge1.compliance.manager</text>
  <text x="20" y="500">forge1.compliance.programs</text>
  <text x="20" y="516">forge1.compliance.verify_security_compliance</text>
  <text x="20" y="532">forge1.config.integration_settings</text>
  <text x="20" y="548">forge1.core.adversarial_evaluation</text>
  <text x="20" y="564">forge1.core.agent_base</text>
  <text x="20" y="580">forge1.core.app_kernel</text>
  <text x="20" y="596">forge1.core.audit_logger</text>
  <text x="20" y="612">forge1.core.code_sandbox</text>
  <text x="20" y="628">forge1.core.compliance_engine</text>
  <text x="20" y="644">forge1.core.conflict_resolution</text>
  <text x="20" y="660">forge1.core.connection_pool_manager</text>
  <text x="20" y="676">forge1.core.database_config</text>
  <text x="20" y="692">forge1.core.dlp</text>
  <text x="20" y="708">forge1.core.encryption_manager</text>
  <text x="20" y="724">forge1.core.escalation_manager</text>
  <text x="20" y="740">forge1.core.excellence_manager</text>
  <text x="20" y="756">forge1.core.fallback_modules</text>
  <text x="20" y="772">forge1.core.health_checks</text>
  <text x="20" y="788">forge1.core.logging_config</text>
  <text x="20" y="804">forge1.core.memory</text>
  <text x="20" y="820">forge1.core.memory.memgpt_summarizer</text>
  <text x="20" y="836">forge1.core.memory_manager</text>
  <text x="20" y="852">forge1.core.memory_models</text>
  <text x="20" y="868">forge1.core.memory_optimizer</text>
  <text x="20" y="884">forge1.core.model_router</text>
  <text x="20" y="900">forge1.core.monitoring</text>
  <text x="20" y="916">forge1.core.orchestration</text>
  <text x="20" y="932">forge1.core.performance_monitor</text>
  <text x="20" y="948">forge1.core.performance_optimizer</text>
  <text x="20" y="964">forge1.core.policy_engine</text>
  <text x="20" y="980">forge1.core.quality_assurance</text>
  <text x="20" y="996">forge1.core.redis_cache_manager</text>
  <text x="20" y="1012">forge1.core.secret_manager</text>
  <text x="20" y="1028">forge1.core.security</text>
  <text x="20" y="1044">forge1.core.security_manager</text>
  <text x="20" y="1060">forge1.core.tenancy</text>
  <text x="20" y="1076">forge1.core.tool_reliability</text>
  <text x="20" y="1092">forge1.customization</text>
  <text x="20" y="1108">forge1.customization.guardrails</text>
  <text x="20" y="1124">forge1.customization.manager</text>
  <text x="20" y="1140">forge1.dlp.presidio_adapter</text>
  <text x="20" y="1156">forge1.integrations</text>
  <text x="20" y="1172">forge1.integrations.api_integration_layer</text>
  <text x="20" y="1188">forge1.integrations.autogen_adapter</text>
  <text x="20" y="1204">forge1.integrations.automation_connectors</text>
  <text x="20" y="1220">forge1.integrations.base_adapter</text>
  <text x="20" y="1236">forge1.integrations.crewai_adapter</text>
  <text x="20" y="1252">forge1.integrations.forge1_agent_factory</text>
  <text x="20" y="1268">forge1.integrations.forge1_memory_store</text>
  <text x="20" y="1284">forge1.integrations.forge1_model_client</text>
  <text x="20" y="1300">forge1.integrations.forge1_system_adapter</text>
  <text x="20" y="1316">forge1.integrations.framework_adapter</text>
  <text x="20" y="1332">forge1.integrations.haystack_adapter</text>
  <text x="20" y="1348">forge1.integrations.langchain_adapter</text>
  <text x="20" y="1364">forge1.integrations.llamaindex_adapter</text>
  <text x="20" y="1380">forge1.integrations.llamaindex_model_shim</text>
  <text x="20" y="1396">forge1.integrations.llamaindex_tools</text>
  <text x="20" y="1412">forge1.integrations.mcae_adapter</text>
  <text x="20" y="1428">forge1.integrations.mcae_error_handler</text>
  <text x="20" y="1444">forge1.integrations.mcae_logging</text>
  <text x="20" y="1460">forge1.integrations.mcae_performance_monitor</text>
  <text x="20" y="1476">forge1.integrations.mcae_tools</text>
  <text x="20" y="1492">forge1.integrations.mcae_tools.document_parser</text>
  <text x="20" y="1508">forge1.integrations.mcae_tools.drive_fetcher</text>
  <text x="20" y="1524">forge1.integrations.mcae_tools.slack_poster</text>
  <text x="20" y="1540">forge1.integrations.mcae_tools.vector_search</text>
  <text x="20" y="1556">forge1.integrations.metering.openmeter_client</text>
  <text x="20" y="1572">forge1.integrations.metering.usage_events</text>
  <text x="20" y="1588">forge1.integrations.nda_workflow</text>
  <text x="20" y="1604">forge1.integrations.observability</text>
  <text x="20" y="1620">forge1.integrations.observability.azure_monitor</text>
  <text x="20" y="1636">forge1.integrations.observability.azure_monitor_adapter</text>
  <text x="20" y="1652">forge1.integrations.observability.metrics</text>
  <text x="20" y="1668">forge1.integrations.observability.otel_init</text>
  <text x="20" y="1684">forge1.integrations.otel_integration</text>
  <text x="20" y="1700">forge1.integrations.queue</text>
  <text x="20" y="1716">forge1.integrations.queue.celery_app</text>
  <text x="20" y="1732">forge1.integrations.queue.redis_client</text>
  <text x="20" y="1748">forge1.integrations.system_validator</text>
  <text x="20" y="1764">forge1.integrations.tool_permission_enforcer</text>
  <text x="20" y="1780">forge1.integrations.usage_tracking</text>
  <text x="20" y="1796">forge1.integrations.vector.vector_store_weaviate</text>
  <text x="20" y="1812">forge1.integrations.vector.weaviate_client</text>
  <text x="20" y="1828">forge1.integrations.workflow_context_injector</text>
  <text x="20" y="1844">forge1.integrations.workflow_error_handling</text>
  <text x="20" y="1860">forge1.integrations.workflow_executor</text>
  <text x="20" y="1876">forge1.integrations.workflows_adapter</text>
  <text x="20" y="1892">forge1.main</text>
  <text x="20" y="1908">forge1.marketplace</text>
  <text x="20" y="1924">forge1.marketplace.models</text>
  <text x="20" y="1940">forge1.marketplace.registry</text>
  <text x="20" y="1956">forge1.middleware.azure_monitor_middleware</text>
  <text x="20" y="1972">forge1.middleware.policy_enforcer</text>
  <text x="20" y="1988">forge1.middleware.security_middleware</text>
  <text x="20" y="2004">forge1.models</text>
  <text x="20" y="2020">forge1.models.employee_models</text>
  <text x="20" y="2036">forge1.models.workflow_models</text>
  <text x="20" y="2052">forge1.optimization</text>
  <text x="20" y="2068">forge1.optimization.capacity_optimizer</text>
  <text x="20" y="2084">forge1.orchestration.temporal_client</text>
  <text x="20" y="2100">forge1.performance</text>
  <text x="20" y="2116">forge1.performance.verify_performance_profiles</text>
  <text x="20" y="2132">forge1.platform</text>
  <text x="20" y="2148">forge1.platform.manager</text>
  <text x="20" y="2164">forge1.policy.opa_client</text>
  <text x="20" y="2180">forge1.security</text>
  <text x="20" y="2196">forge1.security.compliance</text>
  <text x="20" y="2212">forge1.security.penetration_testing</text>
  <text x="20" y="2228">forge1.security.signature_verification</text>
  <text x="20" y="2244">forge1.security.supply_chain</text>
  <text x="20" y="2260">forge1.services</text>
  <text x="20" y="2276">forge1.services.analytics</text>
  <text x="20" y="2292">forge1.services.analytics.azure_monitor_analytics</text>
  <text x="20" y="2308">forge1.services.azure_monitor_service</text>
  <text x="20" y="2324">forge1.services.billing</text>
  <text x="20" y="2340">forge1.services.billing.exporter</text>
  <text x="20" y="2356">forge1.services.client_manager</text>
  <text x="20" y="2372">forge1.services.employee_analytics_service</text>
  <text x="20" y="2388">forge1.services.employee_manager</text>
  <text x="20" y="2404">forge1.services.employee_memory_manager</text>
  <text x="20" y="2420">forge1.services.interaction_processor</text>
  <text x="20" y="2436">forge1.services.personality_manager</text>
  <text x="20" y="2452">forge1.startup</text>
  <text x="20" y="2468">forge1.support</text>
  <text x="20" y="2484">forge1.support.support_system</text>
  <text x="20" y="2500">forge1.tests</text>
  <text x="20" y="2516">forge1.tests.test_authentication_manager</text>
  <text x="20" y="2532">forge1.tests.test_autogen_integration</text>
  <text x="20" y="2548">forge1.tests.test_compliance_security</text>
  <text x="20" y="2564">forge1.tests.test_crewai_integration</text>
  <text x="20" y="2580">forge1.tests.test_database_connectivity</text>
  <text x="20" y="2596">forge1.tests.test_database_setup</text>
  <text x="20" y="2612">forge1.tests.test_framework_compatibility</text>
  <text x="20" y="2628">forge1.tests.test_haystack_integration</text>
  <text x="20" y="2644">forge1.tests.test_integration_endpoints</text>
  <text x="20" y="2660">forge1.tests.test_langchain_integration</text>
  <text x="20" y="2676">forge1.tests.test_memory_integration</text>
  <text x="20" y="2692">forge1.tests.test_memory_manager</text>
  <text x="20" y="2708">forge1.tests.test_memory_optimizer</text>
  <text x="20" y="2724">forge1.tests.test_orchestration_durable</text>
  <text x="20" y="2740">forge1.tests.test_orchestrator_qa_integration</text>
  <text x="20" y="2756">forge1.tests.test_performance_benchmark</text>
  <text x="20" y="2772">forge1.tests.test_policy_engine</text>
  <text x="20" y="2788">forge1.tests.test_quality_assurance</text>
  <text x="20" y="2804">forge1.tests.test_tenancy</text>
  <text x="20" y="2820">forge1.tests.test_tool_registry</text>
  <text x="20" y="2836">forge1.tests.test_verticals_playbooks</text>
  <text x="20" y="2852">forge1.tools</text>
  <text x="20" y="2868">forge1.tools.example_tools</text>
  <text x="20" y="2884">forge1.tools.tool_registry</text>
  <text x="20" y="2900">forge1.verticals</text>
  <text x="20" y="2916">forge1.verticals.cx</text>
  <text x="20" y="2932">forge1.verticals.cx.connectors</text>
  <text x="20" y="2948">forge1.verticals.cx.employee</text>
  <text x="20" y="2964">forge1.verticals.cx.playbooks</text>
  <text x="20" y="2980">forge1.verticals.cx.tests</text>
  <text x="20" y="2996">forge1.verticals.engineering</text>
  <text x="20" y="3012">forge1.verticals.engineering.employee</text>
  <text x="20" y="3028">forge1.verticals.finance</text>
  <text x="20" y="3044">forge1.verticals.finance.employee</text>
  <text x="20" y="3060">forge1.verticals.itops</text>
  <text x="20" y="3076">forge1.verticals.itops.employee</text>
  <text x="20" y="3092">forge1.verticals.kpis</text>
  <text x="20" y="3108">forge1.verticals.legal</text>
  <text x="20" y="3124">forge1.verticals.legal.employee</text>
  <text x="20" y="3140">forge1.verticals.playbook_engine</text>
  <text x="20" y="3156">forge1.verticals.registry</text>
  <text x="20" y="3172">forge1.verticals.revops</text>
  <text x="20" y="3188">forge1.verticals.revops.connectors</text>
  <text x="20" y="3204">forge1.verticals.revops.employee</text>
  <text x="20" y="3220">forge1.verticals.revops.playbooks</text>
  <text x="20" y="3236">forge1.verticals.tests.test_verticals_integration</text>
  <text x="10" y="3268" font-weight="bold">Edges (2):</text>
  <text x="20" y="3284">forge1.compliance.manager -&gt; forge1.compliance.gdpr</text>
  <text x="20" y="3300">forge1.compliance.manager -&gt; forge1.compliance.hipaa</text>
</svg>